PathFileType	4	(X/Y/Z)	C:/Users/opensim2020/Desktop/walking_exp_matlab/subject02_walking04_straight_01.trc	
DataRate	CameraRate	NumFrames	NumMarkers	Units	OrigDataRate	OrigDataStartFrame	OrigNumFrames	
100.00	100.00	4	42	mm	100.00	878	302	
Frame#	Time	LFHD			RFHD			LBHD			RBHD			C7			T10			CLAV			STRN			RBAK			LSHO			LUPA			LELB			LFRM			LWRA			LWRB			LFIN			RSHO			RUPA			RELB			RFRM			RWRA			RWRB			RFIN			LASI			RASI			LPSI			RPSI			LTHI			LKNE			LTIB			LANK			LHEE			LTOE			RTHI			RKNE			RTIB			RANK			RHEE			RTOE			*39			*40			*41			
		X1	Y1	Z1	X2	Y2	Z2	X3	Y3	Z3	X4	Y4	Z4	X5	Y5	Z5	X6	Y6	Z6	X7	Y7	Z7	X8	Y8	Z8	X9	Y9	Z9	X10	Y10	Z10	X11	Y11	Z11	X12	Y12	Z12	X13	Y13	Z13	X14	Y14	Z14	X15	Y15	Z15	X16	Y16	Z16	X17	Y17	Z17	X18	Y18	Z18	X19	Y19	Z19	X20	Y20	Z20	X21	Y21	Z21	X22	Y22	Z22	X23	Y23	Z23	X24	Y24	Z24	X25	Y25	Z25	X26	Y26	Z26	X27	Y27	Z27	X28	Y28	Z28	X29	Y29	Z29	X30	Y30	Z30	X31	Y31	Z31	X32	Y32	Z32	X33	Y33	Z33	X34	Y34	Z34	X35	Y35	Z35	X36	Y36	Z36	X37	Y37	Z37	X38	Y38	Z38	X39	Y39	Z39	X40	Y40	Z40	X41	Y41	Z41	X42	Y42	Z42	

152	1.510	-1059.86011	-301.38599	1730.75745	-917.89313	-305.86911	1705.22388	-1079.38525	-417.51807	1636.08130	-939.59174	-433.72357	1607.51733	-1006.92322	-463.67319	1501.58044	-993.53345	-519.05499	1227.68701	-1027.61780	-324.72433	1431.80103	-1029.92664	-274.93857	1260.05884	-940.57806	-518.04419	1328.17676	-1192.96216	-394.08701	1480.25403	-1286.12476	-370.62729	1286.56848	-1310.63733	-334.19360	1149.33313	-1314.39038	-261.40286	1036.17883	-1269.93750	-155.46133	959.14764	-1305.08191	-192.92305	935.13824	-1306.82422	-142.10646	894.14240	-825.68353	-369.89407	1459.64209	-744.03479	-412.08350	1272.79785	-732.92242	-415.32690	1125.09265	-716.31769	-396.68887	1005.15015	-737.16486	-356.14966	876.79449	-707.08716	-405.23059	875.11194	-704.03986	-371.16049	811.57971	-1164.47229	-312.69547	960.29498	-913.03748	-257.36737	961.54395	-1037.34521	-500.46933	1003.79529	-923.94672	-482.39456	1008.19019	-1200.52356	-438.12042	659.71655	-1173.56104	-503.70023	473.08594	-1163.84644	-640.47925	334.72330	-1131.04529	-740.91406	132.84700	-1076.48438	-776.91681	125.15788	-1148.61096	-619.80945	29.36250	-823.88318	-253.00906	669.06934	-868.83453	-199.84975	469.28699	-856.09106	-194.64713	281.18057	-889.15985	-181.58533	88.21702	-942.95190	-214.87120	35.55884	-894.06305	-25.32236	42.44077	-973.04541	-417.44421	1773.55042						 
153	1.520	-1057.59973	-291.16415	1731.58899	-915.72040	-295.43536	1706.13306	-1077.27332	-407.24088	1637.09912	-937.62115	-423.59677	1608.35303	-1004.66675	-453.69708	1502.48938	-991.73071	-508.37772	1228.20239	-1025.66638	-314.72632	1432.91797	-1027.89673	-264.22693	1261.45764	-938.07178	-507.47293	1328.84729	-1190.91992	-384.51456	1481.01660	-1283.92993	-363.10471	1286.84326	-1307.95691	-328.06799	1149.10376	-1311.93738	-256.97836	1035.00427	-1268.44580	-151.71040	956.52686	-1303.18811	-189.81676	932.99255	-1305.26392	-139.62193	891.27246	-823.73602	-359.50952	1460.50061	-741.90533	-400.23047	1273.23145	-730.91516	-402.08539	1125.52454	-714.70483	-382.72784	1005.69305	-736.06030	-341.92105	877.49884	-705.53601	-390.38882	875.69421	-702.84229	-356.39996	812.16791	-1161.42749	-300.08429	960.78503	-910.61450	-245.72340	963.16522	-1036.24365	-488.35556	1004.74475	-922.09375	-470.85028	1009.69885	-1199.44177	-424.52341	660.13440	-1174.86987	-487.67102	473.73337	-1163.31335	-628.20532	339.83472	-1131.05505	-733.59033	140.64569	-1075.72205	-767.96436	134.69513	-1148.83044	-619.53528	29.49257	-823.10120	-241.54395	669.98743	-869.50806	-188.36873	469.58978	-856.81647	-186.54440	281.03079	-889.61963	-179.37630	88.96540	-942.87549	-214.39345	35.85793	-895.75433	-23.70061	41.09798	-970.62622	-407.03934	1774.49597						 
154	1.530	-1055.55762	-280.73294	1732.80334	-914.00092	-285.49146	1706.77820	-1075.24170	-397.02402	1638.38806	-935.25470	-412.90439	1609.47827	-1002.51953	-443.86734	1503.46216	-989.85815	-497.77960	1228.78430	-1023.75702	-304.79138	1434.20178	-1025.81177	-253.51804	1262.97534	-935.74988	-496.52789	1329.46179	-1189.00244	-374.92062	1482.15295	-1281.07861	-355.67029	1287.15808	-1305.12329	-322.24435	1149.19128	-1309.55554	-252.84634	1033.92737	-1266.91431	-148.58667	953.80634	-1301.21143	-187.26851	930.88074	-1303.74121	-137.81572	888.36609	-821.90466	-348.54465	1461.73621	-739.66174	-387.69995	1273.82178	-729.14392	-388.46182	1126.18274	-713.08813	-368.65320	1006.59631	-734.89075	-327.38940	878.48694	-703.79309	-375.59430	876.51324	-701.99817	-341.58206	813.03723	-1158.05493	-287.57397	961.53381	-908.01776	-234.24382	965.06049	-1035.30652	-476.58749	1005.70496	-920.48431	-459.51379	1011.12933	-1198.41663	-410.43222	660.47162	-1176.36670	-470.55115	474.45609	-1163.14709	-614.07867	344.71875	-1130.95105	-724.54639	148.59628	-1074.70654	-757.39734	144.43343	-1148.61108	-619.05676	29.52402	-822.04694	-229.36569	670.86395	-869.84833	-178.04105	469.80222	-857.56512	-179.94528	281.08728	-889.93811	-177.28754	89.05368	-942.83496	-214.31613	36.17426	-896.83545	-22.48454	40.24726	-968.54681	-396.64639	1775.67517						 
155	1.540	-1053.37170	-270.54559	1733.77795	-911.74707	-274.91440	1708.02551	-1073.21436	-386.92325	1639.78467	-933.27661	-402.86148	1610.83606	-1000.56085	-433.99152	1504.42932	-987.84717	-487.12973	1229.46094	-1021.89868	-294.83804	1435.62134	-1023.81104	-242.88414	1264.57532	-933.40900	-485.47565	1330.12524	-1187.00134	-365.45776	1483.20166	-1278.56519	-348.27997	1287.71521	-1302.36169	-316.48386	1149.32373	-1307.27747	-249.17802	1033.01208	-1265.44739	-145.62062	951.12939	-1299.32471	-185.26849	928.81989	-1301.98291	-136.54857	885.37775	-820.08643	-338.28906	1463.28821	-737.54102	-374.88983	1274.96497	-727.33649	-374.69754	1127.28503	-711.58588	-354.46442	1007.68530	-733.37579	-312.47949	879.72705	-702.11322	-360.41336	877.69360	-700.65070	-326.20093	814.24268	-1154.51575	-275.43591	962.50195	-905.31842	-222.73741	967.20343	-1034.34229	-465.05859	1006.77429	-918.88763	-448.38547	1012.38287	-1197.49878	-395.84958	660.57147	-1177.73022	-452.44180	474.69394	-1163.13525	-598.29626	349.25531	-1130.67578	-713.81036	156.50798	-1073.48035	-745.06067	154.08160	-1148.16370	-618.29974	29.74606	-821.44275	-218.09631	671.31287	-869.83246	-169.11679	469.98892	-857.71063	-175.55032	281.47314	-890.39008	-176.35574	89.19396	-942.99396	-214.08359	36.34230	-896.67175	-21.86271	39.56164	-966.49133	-386.17480	1777.00366						 
